# xmcd CD database file
#
# Track frame offsets:
#	150
#	24395
#	46105
#	57631
#	73537
#	92675
#	93660
#	120768
#	141525
#	161354
#	180225
#
# Disc length: 2707 seconds
#
# Revision: 0
# Processed by: cddbd v1.5.1PL0 Copyright (c) Steve Scherf et al.
# Submitted via: CDex 1.51
#
DISCID=890a910b
DTITLE=SAYAKA - Doll
DYEAR=2005
DGENRE=Pop
TTITLE0=水色
TTITLE1=上弦の月
TTITLE2=カナリヤ
TTITLE3=La La Sunday
TTITLE4=garden (acoustic ver.)
TTITLE5=〜Noise from silence〜
TTITLE6=ever since
TTITLE7=Believe again
TTITLE8=螺旋
TTITLE9=four hours
TTITLE10=Mermaid
EXTD=YEAR: 2005
EXTT0=
EXTT1=
EXTT2=
EXTT3=
EXTT4=
EXTT5=
EXTT6=
EXTT7=
EXTT8=
EXTT9=
EXTT10=
PLAYORDER=
